# xmcd
#
# Track frame offsets:
#	150
#	23487
#	44665
#	65732
#	79295
#	93860
#	106455
#	122052
#	139520
#	156252
#	172609
#	187805
#	190862
#
# Disc length: 2739 seconds
#
# Revision: 0
# Processed by: cddbd v1.5.1PL0 Copyright (c) Steve Scherf et al.
# Submitted via: audiograbber 1.83.01
#
DISCID=a20ab10d
DTITLE=MACIEL MELLO - RETINAS
DYEAR=1900
DGENRE=
TTITLE0=RETINAS
TTITLE1=MENINOS DO SERTÃO
TTITLE2=POÇO DA ALMA
TTITLE3=COENTRO E CEBOLINHA
TTITLE4=DERRETENDO A SEDA
TTITLE5=MEU RISO, MEU PRANTO
TTITLE6=SÓ SEI QUE VIVENDO MORRO
TTITLE7=POR BAIXO DO COCÓ
TTITLE8=JOGO O LAÇO
TTITLE9=QUERERES IGUAIS
TTITLE10=O PAPA FIGO
TTITLE11=EVOÉ, EVOÉ
TTITLE12=TOADA DE MARACATU-MEU MARACATU, 500 ANOS DEPOIS
EXTD=
EXTT0=
EXTT1=
EXTT2=
EXTT3=
EXTT4=
EXTT5=
EXTT6=
EXTT7=
EXTT8=
EXTT9=
EXTT10=
EXTT11=
EXTT12=
PLAYORDER=
